<?xml version="1.0" standalone="no"?>
<!DOCTYPE svg PUBLIC "-//W3C//DTD SVG 20010904//EN"
 "http://www.w3.org/TR/2001/REC-SVG-20010904/DTD/svg10.dtd">
<svg version="1.0" xmlns="http://www.w3.org/2000/svg"
 width="1200.000000pt" height="1200.000000pt" viewBox="0 0 1200.000000 1200.000000"
 preserveAspectRatio="xMidYMid meet">
<metadata>
Created by potrace 1.14, written by Peter Selinger 2001-2017
</metadata>
<g transform="translate(0.000000,1200.000000) scale(0.100000,-0.100000)"
fill="#000000" stroke="none">
<path d="M8837 6535 c-390 -54 -725 -217 -969 -473 -286 -301 -420 -712 -379
-1167 38 -414 178 -717 458 -986 208 -200 472 -361 893 -544 730 -316 864
-389 983 -533 97 -117 138 -282 106 -434 -27 -130 -126 -262 -252 -337 -223
-132 -610 -157 -907 -60 -249 82 -465 259 -643 526 -34 51 -67 92 -73 90 -25
-5 -904 -522 -904 -532 0 -16 97 -174 170 -277 75 -106 229 -270 340 -363 311
-260 722 -428 1190 -487 157 -20 574 -17 725 5 411 60 750 202 1007 421 347
296 521 759 480 1277 -33 416 -159 705 -422 970 -245 248 -555 430 -1205 709
-440 190 -584 268 -698 381 -167 167 -190 460 -52 649 48 65 147 135 238 168
65 24 85 26 217 26 169 0 232 -14 354 -77 100 -52 208 -156 293 -283 33 -51
63 -98 65 -105 5 -15 877 538 878 556 0 15 -83 146 -148 235 -31 41 -99 119
-151 174 -269 277 -595 430 -1013 475 -132 15 -461 12 -581 -4z"/>
<path d="M5410 4553 c0 -1215 -4 -1977 -10 -2043 -31 -325 -155 -492 -406
-545 -89 -19 -271 -19 -352 0 -190 45 -348 189 -507 463 l-58 100 -66 -41
c-36 -22 -237 -143 -446 -270 -209 -126 -385 -234 -392 -239 -14 -12 19 -84
99 -212 119 -193 319 -403 494 -519 168 -111 390 -207 584 -251 203 -47 468
-64 690 -47 632 50 1071 315 1310 791 78 156 139 370 172 610 8 62 12 642 15
2113 l4 2027 -566 0 -565 0 0 -1937z"/>
</g>
</svg>
